<mxfile host="Electron" modified="2024-07-24T19:55:39.868Z" agent="Mozilla/5.0 (Windows NT 10.0; Win64; x64) AppleWebKit/537.36 (KHTML, like Gecko) draw.io/24.2.5 Chrome/120.0.6099.109 Electron/28.1.0 Safari/537.36" etag="LMkdh2GqNAVXDo-VDVNZ" version="24.2.5" type="device">
  <diagram id="C5RBs43oDa-KdzZeNtuy" name="Page-1">
    <mxGraphModel dx="1328" dy="1754" grid="1" gridSize="10" guides="1" tooltips="1" connect="1" arrows="1" fold="1" page="1" pageScale="1" pageWidth="827" pageHeight="1169" math="0" shadow="0">
      <root>
        <mxCell id="WIyWlLk6GJQsqaUBKTNV-0" />
        <mxCell id="WIyWlLk6GJQsqaUBKTNV-1" parent="WIyWlLk6GJQsqaUBKTNV-0" />
        <mxCell id="DR_WjZrev5LTQAYEtIf2-2" style="edgeStyle=orthogonalEdgeStyle;rounded=0;orthogonalLoop=1;jettySize=auto;html=1;noEdgeStyle=1;orthogonal=1;" edge="1" parent="WIyWlLk6GJQsqaUBKTNV-1" source="Jr42eCUc6g5V1k2Y49N9-2" target="DR_WjZrev5LTQAYEtIf2-0">
          <mxGeometry relative="1" as="geometry">
            <Array as="points">
              <mxPoint x="172" y="47.5" />
              <mxPoint x="248" y="30" />
            </Array>
          </mxGeometry>
        </mxCell>
        <mxCell id="DR_WjZrev5LTQAYEtIf2-3" style="edgeStyle=orthogonalEdgeStyle;rounded=0;orthogonalLoop=1;jettySize=auto;html=1;noEdgeStyle=1;orthogonal=1;" edge="1" parent="WIyWlLk6GJQsqaUBKTNV-1" source="Jr42eCUc6g5V1k2Y49N9-2" target="DR_WjZrev5LTQAYEtIf2-1">
          <mxGeometry relative="1" as="geometry">
            <Array as="points">
              <mxPoint x="172" y="72.5" />
              <mxPoint x="210" y="90" />
              <mxPoint x="470" y="90" />
              <mxPoint x="508" y="72.5" />
            </Array>
          </mxGeometry>
        </mxCell>
        <mxCell id="Jr42eCUc6g5V1k2Y49N9-2" value="OdeLoggingConsumer" style="rounded=0;whiteSpace=wrap;html=1;fillColor=#D4E1F5;container=0;" parent="WIyWlLk6GJQsqaUBKTNV-1" vertex="1">
          <mxGeometry y="30" width="160" height="60" as="geometry" />
        </mxCell>
        <mxCell id="DR_WjZrev5LTQAYEtIf2-4" style="edgeStyle=orthogonalEdgeStyle;rounded=0;orthogonalLoop=1;jettySize=auto;html=1;noEdgeStyle=1;orthogonal=1;" edge="1" parent="WIyWlLk6GJQsqaUBKTNV-1" source="DR_WjZrev5LTQAYEtIf2-0" target="DR_WjZrev5LTQAYEtIf2-1">
          <mxGeometry relative="1" as="geometry">
            <Array as="points">
              <mxPoint x="432" y="30" />
              <mxPoint x="508" y="47.5" />
            </Array>
          </mxGeometry>
        </mxCell>
        <mxCell id="DR_WjZrev5LTQAYEtIf2-0" value="TracManager" style="rounded=0;whiteSpace=wrap;html=1;fillColor=#D4E1F5;container=0;" vertex="1" parent="WIyWlLk6GJQsqaUBKTNV-1">
          <mxGeometry x="260" width="160" height="60" as="geometry" />
        </mxCell>
        <mxCell id="DR_WjZrev5LTQAYEtIf2-1" value="DataLoggerConfiguration" style="rounded=0;whiteSpace=wrap;html=1;fillColor=#D4E1F5;container=0;" vertex="1" parent="WIyWlLk6GJQsqaUBKTNV-1">
          <mxGeometry x="520" y="30" width="160" height="60" as="geometry" />
        </mxCell>
        <mxCell id="DR_WjZrev5LTQAYEtIf2-5" value="ode-data-logger" style="swimlane;whiteSpace=wrap;html=1;" vertex="1" parent="WIyWlLk6GJQsqaUBKTNV-1">
          <mxGeometry x="-20" y="-50" width="720" height="190" as="geometry" />
        </mxCell>
      </root>
    </mxGraphModel>
  </diagram>
</mxfile>
